# xmcd
#
# Track frame offsets:
#	150
#	13858
#	27127
#	39227
#	53595
#	60474
#	69872
#	80823
#	92826
#	105630
#
# Disc length: 1538 seconds
#
# Revision: 1
# Processed by: cddbd v1.5.2PL0 Copyright (c) Steve Scherf et al.
# Submitted via: audiograbber 1.83.01
#
DISCID=7306000a
DTITLE=Bobbe Seymour - A Christmas Card
DYEAR=2003
DGENRE=Country
TTITLE0=God Rest Ye Merry Gentlemen
TTITLE1=Oh Christmas Tree
TTITLE2=O Little Town Of Bethlehem
TTITLE3=Silent Night
TTITLE4=We Wisch You A Merry Christmas
TTITLE5=Oh Come All Ye Faithful
TTITLE6=Deck The World
TTITLE7=Joy To The World
TTITLE8=The First Noel
TTITLE9=Hark The Herald Angel's Sing
EXTD=
EXTT0=
EXTT1=
EXTT2=
EXTT3=
EXTT4=
EXTT5=
EXTT6=
EXTT7=
EXTT8=
EXTT9=
PLAYORDER=
